name rise36.2859peak64.2979fall75.1499.mot
datacolumns 19
datarows 33
range 3.28167400000000 3.33499000000000
endheader
time	ground_force1_vx	ground_force1_vy	ground_force1_vz	ground_force1_px	ground_force1_py	ground_force1_pz	ground_force2_vx	ground_force2_vy	ground_force2_vz	ground_force2_px	ground_force2_py	ground_force2_pz	ground_torque1_x	ground_torque1_y	ground_torque1_z	ground_torque2_x	ground_torque2_y	ground_torque2_z	
3.28167400000000	67.84095900000000	784.52017799999999	56.60813600000000	0.44525700000000	0.00000000000000	0.09953400000000	0.00000000000000	0.00000000000000	0.00000000000000	0.00000000000000	0.00000000000000	0.00000000000000	0.00000000000000	34.38990200000000	0.00000000000000	0.00000000000000	0.00000000000000	0.00000000000000	
3.28332500000000	67.31192500000000	787.09807100000000	56.75212500000000	0.44418000000000	0.00000000000000	0.09950900000000	0.00000000000000	0.00000000000000	0.00000000000000	0.00000000000000	0.00000000000000	0.00000000000000	0.00000000000000	34.45847600000000	0.00000000000000	0.00000000000000	0.00000000000000	0.00000000000000	
3.28498500000000	66.77902300000000	789.52508799999998	56.89391600000000	0.44310600000000	0.00000000000000	0.09948600000000	0.00000000000000	0.00000000000000	0.00000000000000	0.00000000000000	0.00000000000000	0.00000000000000	0.00000000000000	34.52662900000000	0.00000000000000	0.00000000000000	0.00000000000000	0.00000000000000	
3.28666000000000	66.24249399999999	791.79879400000004	57.03306500000000	0.44203400000000	0.00000000000000	0.09946300000000	0.00000000000000	0.00000000000000	0.00000000000000	0.00000000000000	0.00000000000000	0.00000000000000	0.00000000000000	34.59406900000000	0.00000000000000	0.00000000000000	0.00000000000000	0.00000000000000	
3.28831700000000	65.70253300000000	793.91696200000001	57.16907800000000	0.44096700000000	0.00000000000000	0.09944200000000	0.00000000000000	0.00000000000000	0.00000000000000	0.00000000000000	0.00000000000000	0.00000000000000	0.00000000000000	34.66046600000000	0.00000000000000	0.00000000000000	0.00000000000000	0.00000000000000	
3.28999000000000	65.15929500000000	795.87758899999994	57.30142000000000	0.43990300000000	0.00000000000000	0.09942200000000	0.00000000000000	0.00000000000000	0.00000000000000	0.00000000000000	0.00000000000000	0.00000000000000	0.00000000000000	34.72545600000000	0.00000000000000	0.00000000000000	0.00000000000000	0.00000000000000	
3.29166400000000	64.61289300000000	797.67891199999997	57.42951700000000	0.43884200000000	0.00000000000000	0.09940300000000	0.00000000000000	0.00000000000000	0.00000000000000	0.00000000000000	0.00000000000000	0.00000000000000	0.00000000000000	34.78864100000000	0.00000000000000	0.00000000000000	0.00000000000000	0.00000000000000	
3.29332200000000	64.06341200000000	799.31942400000003	57.55276700000000	0.43778500000000	0.00000000000000	0.09938500000000	0.00000000000000	0.00000000000000	0.00000000000000	0.00000000000000	0.00000000000000	0.00000000000000	0.00000000000000	34.84959900000000	0.00000000000000	0.00000000000000	0.00000000000000	0.00000000000000	
3.29498900000000	63.51090200000000	800.79788399999995	57.67054300000000	0.43673200000000	0.00000000000000	0.09936800000000	0.00000000000000	0.00000000000000	0.00000000000000	0.00000000000000	0.00000000000000	0.00000000000000	0.00000000000000	34.90788700000000	0.00000000000000	0.00000000000000	0.00000000000000	0.00000000000000	
3.29666400000000	62.95538900000000	802.11333300000001	57.78220100000000	0.43568200000000	0.00000000000000	0.09935100000000	0.00000000000000	0.00000000000000	0.00000000000000	0.00000000000000	0.00000000000000	0.00000000000000	0.00000000000000	34.96304600000000	0.00000000000000	0.00000000000000	0.00000000000000	0.00000000000000	
3.29832500000000	62.39687700000000	803.26510099999996	57.88708500000000	0.43463600000000	0.00000000000000	0.09933500000000	0.00000000000000	0.00000000000000	0.00000000000000	0.00000000000000	0.00000000000000	0.00000000000000	0.00000000000000	35.01460700000000	0.00000000000000	0.00000000000000	0.00000000000000	0.00000000000000	
3.29998500000000	61.83535000000000	804.25282300000003	57.98453800000000	0.43359400000000	0.00000000000000	0.09932000000000	0.00000000000000	0.00000000000000	0.00000000000000	0.00000000000000	0.00000000000000	0.00000000000000	0.00000000000000	35.06209400000000	0.00000000000000	0.00000000000000	0.00000000000000	0.00000000000000	
3.30166800000000	61.27078000000000	805.07643800000005	58.07390200000000	0.43255400000000	0.00000000000000	0.09930500000000	0.00000000000000	0.00000000000000	0.00000000000000	0.00000000000000	0.00000000000000	0.00000000000000	0.00000000000000	35.10503200000000	0.00000000000000	0.00000000000000	0.00000000000000	0.00000000000000	
3.30332000000000	60.70312400000000	805.73620600000004	58.15453000000000	0.43151800000000	0.00000000000000	0.09929000000000	0.00000000000000	0.00000000000000	0.00000000000000	0.00000000000000	0.00000000000000	0.00000000000000	0.00000000000000	35.14294800000000	0.00000000000000	0.00000000000000	0.00000000000000	0.00000000000000	
3.30498400000000	60.13233800000000	806.23270500000001	58.22578600000000	0.43048400000000	0.00000000000000	0.09927600000000	0.00000000000000	0.00000000000000	0.00000000000000	0.00000000000000	0.00000000000000	0.00000000000000	0.00000000000000	35.17537800000000	0.00000000000000	0.00000000000000	0.00000000000000	0.00000000000000	
3.30666300000000	59.55836900000000	806.56683999999996	58.28705700000000	0.42945300000000	0.00000000000000	0.09926100000000	0.00000000000000	0.00000000000000	0.00000000000000	0.00000000000000	0.00000000000000	0.00000000000000	0.00000000000000	35.20186900000000	0.00000000000000	0.00000000000000	0.00000000000000	0.00000000000000	
3.30832100000000	58.98116800000000	806.73984599999994	58.33775400000000	0.42842300000000	0.00000000000000	0.09924700000000	0.00000000000000	0.00000000000000	0.00000000000000	0.00000000000000	0.00000000000000	0.00000000000000	0.00000000000000	35.22198700000000	0.00000000000000	0.00000000000000	0.00000000000000	0.00000000000000	
3.30998500000000	58.40068900000000	806.75328400000001	58.37731800000000	0.42739600000000	0.00000000000000	0.09923200000000	0.00000000000000	0.00000000000000	0.00000000000000	0.00000000000000	0.00000000000000	0.00000000000000	0.00000000000000	35.23531400000000	0.00000000000000	0.00000000000000	0.00000000000000	0.00000000000000	
3.31165100000000	57.81689100000000	806.60904600000003	58.40522700000000	0.42637000000000	0.00000000000000	0.09921800000000	0.00000000000000	0.00000000000000	0.00000000000000	0.00000000000000	0.00000000000000	0.00000000000000	0.00000000000000	35.24145900000000	0.00000000000000	0.00000000000000	0.00000000000000	0.00000000000000	
3.31331800000000	57.22974500000000	806.30934999999999	58.42099500000000	0.42534400000000	0.00000000000000	0.09920300000000	0.00000000000000	0.00000000000000	0.00000000000000	0.00000000000000	0.00000000000000	0.00000000000000	0.00000000000000	35.24005700000000	0.00000000000000	0.00000000000000	0.00000000000000	0.00000000000000	
3.31498800000000	56.63923400000000	805.85674100000006	58.42418300000000	0.42432000000000	0.00000000000000	0.09918800000000	0.00000000000000	0.00000000000000	0.00000000000000	0.00000000000000	0.00000000000000	0.00000000000000	0.00000000000000	35.23077100000000	0.00000000000000	0.00000000000000	0.00000000000000	0.00000000000000	
3.31666300000000	56.04535500000000	805.25408000000004	58.41439600000000	0.42329500000000	0.00000000000000	0.09917200000000	0.00000000000000	0.00000000000000	0.00000000000000	0.00000000000000	0.00000000000000	0.00000000000000	0.00000000000000	35.21329800000000	0.00000000000000	0.00000000000000	0.00000000000000	0.00000000000000	
3.31832000000000	55.44812300000000	804.50454300000001	58.39129000000000	0.42227100000000	0.00000000000000	0.09915600000000	0.00000000000000	0.00000000000000	0.00000000000000	0.00000000000000	0.00000000000000	0.00000000000000	0.00000000000000	35.18736800000000	0.00000000000000	0.00000000000000	0.00000000000000	0.00000000000000	
3.31998800000000	54.84757400000000	803.61161200000004	58.35457400000000	0.42124500000000	0.00000000000000	0.09914000000000	0.00000000000000	0.00000000000000	0.00000000000000	0.00000000000000	0.00000000000000	0.00000000000000	0.00000000000000	35.15274600000000	0.00000000000000	0.00000000000000	0.00000000000000	0.00000000000000	
3.32165500000000	54.24376200000000	802.57906700000001	58.30401100000000	0.42021800000000	0.00000000000000	0.09912300000000	0.00000000000000	0.00000000000000	0.00000000000000	0.00000000000000	0.00000000000000	0.00000000000000	0.00000000000000	35.10923900000000	0.00000000000000	0.00000000000000	0.00000000000000	0.00000000000000	
3.32332500000000	53.63676700000000	801.41097600000001	58.23941900000000	0.41919000000000	0.00000000000000	0.09910500000000	0.00000000000000	0.00000000000000	0.00000000000000	0.00000000000000	0.00000000000000	0.00000000000000	0.00000000000000	35.05668800000000	0.00000000000000	0.00000000000000	0.00000000000000	0.00000000000000	
3.32498500000000	53.02669200000000	800.11168299999997	58.16067600000000	0.41816000000000	0.00000000000000	0.09908700000000	0.00000000000000	0.00000000000000	0.00000000000000	0.00000000000000	0.00000000000000	0.00000000000000	0.00000000000000	34.99497800000000	0.00000000000000	0.00000000000000	0.00000000000000	0.00000000000000	
3.32666300000000	52.41366400000000	798.68579799999998	58.06771700000000	0.41712700000000	0.00000000000000	0.09906800000000	0.00000000000000	0.00000000000000	0.00000000000000	0.00000000000000	0.00000000000000	0.00000000000000	0.00000000000000	34.92403100000000	0.00000000000000	0.00000000000000	0.00000000000000	0.00000000000000	
3.32832000000000	51.79783700000000	797.13818400000002	57.96053500000000	0.41609100000000	0.00000000000000	0.09904800000000	0.00000000000000	0.00000000000000	0.00000000000000	0.00000000000000	0.00000000000000	0.00000000000000	0.00000000000000	34.84381200000000	0.00000000000000	0.00000000000000	0.00000000000000	0.00000000000000	
3.32999100000000	51.17939100000000	795.47393999999997	57.83918300000000	0.41505200000000	0.00000000000000	0.09902800000000	0.00000000000000	0.00000000000000	0.00000000000000	0.00000000000000	0.00000000000000	0.00000000000000	0.00000000000000	34.75432700000000	0.00000000000000	0.00000000000000	0.00000000000000	0.00000000000000	
3.33166500000000	50.55853200000000	793.69838900000002	57.70377100000000	0.41400800000000	0.00000000000000	0.09900600000000	0.00000000000000	0.00000000000000	0.00000000000000	0.00000000000000	0.00000000000000	0.00000000000000	0.00000000000000	34.65562000000000	0.00000000000000	0.00000000000000	0.00000000000000	0.00000000000000	
3.33331800000000	49.93549200000000	791.81706299999996	57.55446600000000	0.41296100000000	0.00000000000000	0.09898400000000	0.00000000000000	0.00000000000000	0.00000000000000	0.00000000000000	0.00000000000000	0.00000000000000	0.00000000000000	34.54777600000000	0.00000000000000	0.00000000000000	0.00000000000000	0.00000000000000	
3.33499000000000	49.31053200000000	789.83568600000001	57.39149200000000	0.41190800000000	0.00000000000000	0.09896100000000	0.00000000000000	0.00000000000000	0.00000000000000	0.00000000000000	0.00000000000000	0.00000000000000	0.00000000000000	34.43091900000000	0.00000000000000	0.00000000000000	0.00000000000000	0.00000000000000	
